<?xml version="1.0" encoding="UTF-8" standalone="no"?>
<svg
   xmlns:dc="http://purl.org/dc/elements/1.1/"
   xmlns:cc="http://creativecommons.org/ns#"
   xmlns:rdf="http://www.w3.org/1999/02/22-rdf-syntax-ns#"
   xmlns:svg="http://www.w3.org/2000/svg"
   xmlns="http://www.w3.org/2000/svg"
   id="svg5206"
   version="1.1"
   viewBox="0 0 981 294"
   height="294px"
   width="981px">
  <metadata
     id="metadata5210">
    <rdf:RDF>
      <cc:Work
         rdf:about="">
        <dc:format>image/svg+xml</dc:format>
        <dc:type
           rdf:resource="http://purl.org/dc/dcmitype/StillImage" />
        <dc:title>DEA Internal Docs</dc:title>
      </cc:Work>
    </rdf:RDF>
  </metadata>
  <title
     id="title5159">DEA Internal Docs</title>
  <defs
     id="defs5165" />
  <g
     id="DigitalEarth"
     style="fill:none;fill-rule:evenodd;stroke:none;stroke-width:1">
    <path
       d="m 481.995,142.729 h 8.111 c 4.9,0 7.942,-1.013 10.223,-3.547 2.535,-2.788 3.971,-7.267 3.971,-12.505 0,-5.998 -1.859,-10.646 -5.491,-13.349 -2.62,-2.028 -5.323,-2.788 -9.717,-2.788 h -7.097 z m 9.379,-44.271 c 8.448,0 14.531,1.943 19.347,6.252 5.492,4.985 8.533,12.589 8.533,21.46 0,9.716 -2.619,16.897 -8.026,22.136 -4.816,4.647 -10.477,6.505 -19.939,6.505 H 467.294 V 98.458 Z"
       id="Fill-1"
       style="fill:#00a0d3" />
    <path
       d="m 525.876,154.811 h 13.433 v -40.807 h -13.433 z m 0,-46.214 h 13.433 V 98.458 h -13.433 z"
       id="Fill-2"
       style="fill:#00a0d3" />
    <path
       d="m 558.166,132.76 c 0,6.337 3.042,10.138 8.026,10.138 4.985,0 8.026,-3.801 8.026,-9.969 0,-5.998 -3.041,-9.8 -7.941,-9.8 -5.069,0 -8.111,3.633 -8.111,9.631 z m 28.81,16.644 c 0,6.168 -0.676,9.294 -2.788,12.42 -3.379,4.985 -9.209,7.435 -17.911,7.435 -12.335,0 -18.841,-4.309 -19.94,-13.096 h 13.434 c 0.845,3.211 2.788,4.479 6.759,4.479 5.492,0 7.519,-2.451 7.519,-9.125 v -4.478 c -2.872,3.802 -6.674,5.66 -11.828,5.66 -10.56,0 -17.235,-7.603 -17.235,-19.685 0,-12.166 6.928,-20.109 17.573,-20.109 5.238,0 8.449,1.691 11.49,6.252 v -5.153 h 12.927 z"
       id="Fill-3"
       style="fill:#00a0d3" />
    <path
       d="m 594.831,154.811 h 13.433 v -40.807 h -13.433 z m 0,-46.214 h 13.433 V 98.458 h -13.433 z"
       id="Fill-4"
       style="fill:#00a0d3" />
    <path
       d="m 640.056,122.875 h -8.364 v 16.728 c 0,4.901 0.761,5.746 5.154,5.746 0.76,0 1.859,-0.084 3.21,-0.169 v 9.885 c -3.041,0.253 -4.815,0.338 -7.434,0.338 -6.59,0 -9.97,-1.098 -12.251,-3.971 -1.69,-2.197 -2.113,-4.224 -2.113,-10.561 v -17.996 h -6.843 v -8.871 h 6.843 V 101.5 h 13.434 v 12.504 h 8.364 v 8.871"
       id="Fill-5"
       style="fill:#00a0d3" />
    <path
       d="m 670.446,135.548 c -1.606,1.014 -2.873,1.436 -6.59,2.028 -5.745,1.014 -7.436,2.196 -7.436,5.407 0,2.957 2.029,4.816 5.408,4.816 3.042,0 5.576,-1.183 7.181,-3.21 1.099,-1.437 1.437,-2.704 1.437,-5.492 z m 0.845,19.263 c -0.422,-1.605 -0.591,-2.45 -0.676,-3.886 -3.718,3.464 -7.858,4.985 -13.349,4.985 -9.041,0 -14.448,-4.731 -14.448,-12.505 0,-4.984 2.281,-8.448 6.675,-10.476 2.281,-1.014 4.562,-1.605 10.138,-2.366 9.885,-1.351 10.73,-1.689 10.73,-4.731 0,-3.041 -2.028,-4.478 -6.167,-4.478 -4.479,0 -6.252,1.268 -6.928,5.154 h -12.589 c 0.507,-9.04 7.097,-13.603 19.686,-13.603 6.675,0 11.743,1.183 15.039,3.633 3.21,2.366 4.14,4.816 4.14,10.814 0,0.93 0,1.099 -0.085,5.746 0,2.112 0,2.112 -0.084,6.759 v 3.717 c 0,5.745 0.337,8.195 1.605,11.237 z"
       id="Fill-6"
       style="fill:#00a0d3" />
    <polygon
       id="Fill-7"
       points="690.965,98.458 690.965,154.811 704.399,154.811 704.399,98.458 "
       style="fill:#00a0d3" />
    <polyline
       id="Fill-8"
       points="780.352 110.54 749.937 110.54 749.937 119.918 777.733 119.918 777.733 131.493 749.937 131.493 749.937 142.729 781.028 142.729 781.028 154.811 735.236 154.811 735.236 98.458 780.352 98.458 780.352 110.54"
       style="fill:#00a0d3" />
    <path
       d="m 812.962,135.548 c -1.605,1.014 -2.873,1.436 -6.589,2.028 -5.746,1.014 -7.436,2.196 -7.436,5.407 0,2.957 2.028,4.816 5.407,4.816 3.042,0 5.576,-1.183 7.182,-3.21 1.099,-1.437 1.436,-2.704 1.436,-5.492 z m 0.845,19.263 c -0.422,-1.605 -0.592,-2.45 -0.676,-3.886 -3.717,3.464 -7.857,4.985 -13.348,4.985 -9.041,0 -14.449,-4.731 -14.449,-12.505 0,-4.984 2.282,-8.448 6.675,-10.476 2.282,-1.014 4.563,-1.605 10.139,-2.366 9.885,-1.351 10.729,-1.689 10.729,-4.731 0,-3.041 -2.027,-4.478 -6.167,-4.478 -4.478,0 -6.252,1.268 -6.927,5.154 h -12.589 c 0.507,-9.04 7.097,-13.603 19.685,-13.603 6.675,0 11.745,1.183 15.039,3.633 3.21,2.366 4.14,4.816 4.14,10.814 0,0.93 0,1.099 -0.085,5.746 0,2.112 0,2.112 -0.084,6.759 v 3.717 c 0,5.745 0.338,8.195 1.606,11.237 z"
       id="Fill-9"
       style="fill:#00a0d3" />
    <path
       d="m 862.132,125.494 c -2.45,-0.676 -3.633,-0.845 -5.154,-0.845 -3.633,0 -6.759,1.606 -8.533,4.394 -1.099,1.858 -1.606,4.14 -1.606,8.026 v 17.742 h -13.433 v -40.807 h 12.927 v 6.928 c 2.957,-5.661 6.843,-8.111 12.757,-8.111 1.437,0 1.944,0.084 3.042,0.676 v 11.997"
       id="Fill-10"
       style="fill:#00a0d3" />
    <path
       d="m 891.794,122.875 h -8.364 v 16.728 c 0,4.901 0.761,5.746 5.154,5.746 0.76,0 1.859,-0.084 3.21,-0.169 v 9.885 c -3.041,0.253 -4.815,0.338 -7.434,0.338 -6.59,0 -9.97,-1.098 -12.251,-3.971 -1.69,-2.197 -2.112,-4.224 -2.112,-10.561 v -17.996 h -6.844 v -8.871 h 6.844 V 101.5 h 13.433 v 12.504 h 8.364 v 8.871"
       id="Fill-11"
       style="fill:#00a0d3" />
    <path
       d="m 910.912,119.326 c 3.295,-4.392 7.266,-6.421 12.842,-6.421 5.323,0 9.631,1.944 12.081,5.576 1.775,2.536 2.451,5.493 2.451,10.646 v 25.684 h -13.434 v -23.234 c 0,-3.126 -0.253,-4.393 -1.267,-5.576 -1.098,-1.352 -2.873,-2.112 -5.154,-2.112 -2.872,0 -5.153,1.267 -6.421,3.548 -0.844,1.437 -1.098,3.126 -1.098,6.928 v 20.446 H 897.478 V 98.458 h 13.434 v 20.868"
       id="Fill-12"
       style="fill:#00a0d3" />
  </g>
  <g
     id="Australia"
     style="fill:none;fill-rule:evenodd;stroke:none;stroke-width:1">
    <path
       d="m 651.159,201.065 c -1.594,-4.382 -2.125,-6.109 -3.055,-9.296 -0.797,2.789 -1.262,4.05 -3.121,9.164 l -3.652,10.027 h 13.48 z m 18.195,27.559 h -8.301 l -4.25,-11.754 h -17.465 l -4.382,11.754 h -8.036 l 17.133,-44.293 h 8.301 z"
       id="Fill-13"
       style="fill:#636463" />
    <path
       d="m 708.863,210.296 c 0,6.906 -0.731,10.027 -3.254,13.348 -3.121,4.117 -7.836,6.042 -14.809,6.042 -7.57,0 -12.55,-2.191 -15.605,-6.839 -1.992,-2.989 -2.723,-6.309 -2.723,-12.684 v -25.832 h 7.77 v 26.23 c 0,4.715 0.332,6.575 1.527,8.633 1.527,2.657 4.648,4.051 9.164,4.051 4.25,0 7.172,-1.262 8.633,-3.785 1.129,-1.992 1.527,-4.316 1.527,-8.899 v -26.23 h 7.77 v 25.965"
       id="Fill-14"
       style="fill:#636463" />
    <path
       d="m 742.586,197.347 c -0.531,-5.379 -3.652,-7.903 -9.562,-7.903 -5.313,0 -8.5,2.325 -8.5,6.242 0,1.793 0.73,3.122 2.059,3.918 1.726,0.997 2.988,1.329 9.164,2.79 5.777,1.328 8.433,2.257 10.691,3.718 3.453,2.324 5.312,5.578 5.312,9.629 0,8.567 -6.773,13.879 -17.597,13.879 -11.688,0 -18.528,-5.777 -18.66,-15.738 h 7.636 c 0.2,6.308 4.118,9.562 11.489,9.562 5.91,0 9.496,-2.656 9.496,-7.039 0,-2.258 -0.996,-3.719 -3.586,-4.98 -1.395,-0.731 -1.992,-0.93 -6.774,-2.059 -5.843,-1.461 -10.16,-2.988 -12.086,-4.183 -2.988,-1.926 -4.582,-4.981 -4.582,-8.899 0,-7.902 6.442,-12.949 16.403,-12.949 10.226,0 16.203,5.113 16.535,14.012 h -7.438"
       id="Fill-15"
       style="fill:#636463" />
    <polyline
       id="Fill-16"
       points="791.18 190.972 777.036 190.972 777.036 228.624 769.266 228.624 769.266 190.972 755.122 190.972 755.122 184.331 791.18 184.331 791.18 190.972"
       style="fill:#636463" />
    <path
       d="m 804.936,204.585 h 10.227 c 3.851,0 5.777,-0.332 7.304,-1.328 1.793,-1.196 2.789,-3.121 2.789,-5.711 0,-2.856 -1.328,-5.113 -3.652,-6.043 -1.195,-0.465 -3.121,-0.731 -5.445,-0.731 h -11.223 z m 13.215,-20.254 c 4.383,0 6.906,0.531 9.297,1.992 3.586,2.125 5.578,5.778 5.578,10.293 0,5.379 -2.59,9.297 -7.305,10.957 1.992,0.332 3.52,1.395 4.781,3.188 1.395,2.457 1.528,3.054 2.192,10.957 0.332,3.519 0.73,5.246 1.527,6.308 l 0.465,0.598 h -8.367 c -0.863,-1.594 -0.996,-2.391 -1.395,-8.898 -0.265,-4.118 -1.394,-6.973 -3.254,-8.102 -1.261,-0.863 -3.453,-1.262 -6.441,-1.262 h -10.293 v 18.262 h -7.769 v -44.293 z"
       id="Fill-17"
       style="fill:#636463" />
    <path
       d="m 863.949,201.065 c -1.594,-4.382 -2.125,-6.109 -3.055,-9.296 -0.797,2.789 -1.262,4.05 -3.121,9.164 l -3.652,10.027 h 13.48 z m 18.195,27.559 h -8.301 l -4.25,-11.754 h -17.465 l -4.382,11.754 h -8.036 l 17.133,-44.293 h 8.301 z"
       id="Fill-18"
       style="fill:#636463" />
    <polyline
       id="Fill-19"
       points="918.153 228.624 887.805 228.624 887.805 184.331 895.575 184.331 895.575 221.983 918.153 221.983 918.153 228.624"
       style="fill:#636463" />
    <polygon
       id="Fill-20"
       points="924.378,184.331 924.378,228.624 932.148,228.624 932.148,184.331 "
       style="fill:#636463" />
    <path
       style="fill:#636463"
       id="Fill-21"
       d="m 961.963,201.065 c -1.593,-4.382 -2.125,-6.109 -3.054,-9.296 -0.797,2.789 -1.262,4.05 -3.121,9.164 l -3.653,10.027 h 13.481 z m 18.196,27.559 h -8.301 l -4.25,-11.754 h -17.465 l -4.383,11.754 h -8.035 l 17.133,-44.293 h 8.301 z" />
  </g>
  <g
     id="DEALogo"
     style="fill:none;fill-rule:evenodd;stroke:none;stroke-width:1">
    <polyline
       style="fill:#00a0d3"
       points="92.134 185.243 0 93.109 92.134 0.975 184.268 93.11 92.134 185.243"
       id="Fill-23"
       transform="translate(0,75)" />
    <polyline
       id="Fill-25"
       points="292.139 251.648 180.255 139.762 292.139 27.881 404.024 139.766 292.139 251.648"
       style="fill:#7dbc49" />
    <polyline
       style="fill:#83cce6"
       points="64.085 127.592 0.304 63.812 64.085 0.024 127.867 63.804 64.085 127.592"
       id="Fill-26"
       transform="translate(104)" />
    <polyline
       style="fill:#f2af46"
       points="230.492 294 200.345 263.853 230.492 233.707 260.638 263.854 230.492 294"
       id="Fill-28"
       transform="translate(104)" />
  </g>
  <path
     style="fill:#000000;fill-rule:nonzero;stroke:none;stroke-width:1"
     id="Padlock"
     d="m 209,48 c -33.13709,0 -60,26.7286 -60,59.7 v 29.85 H 139 V 247 H 279 V 137.55 H 269 V 107.7 C 269,74.7286 242.13708,48 209,48 Z m 0,19.9 c 22.09139,0 40,17.819059 40,39.8 v 29.85 H 169 V 107.7 c 0,-21.980941 17.90861,-39.8 40,-39.8 z" />
</svg>
