<?xml version="1.0" encoding="UTF-8" standalone="no"?>
<svg
   xmlns:dc="http://purl.org/dc/elements/1.1/"
   xmlns:cc="http://creativecommons.org/ns#"
   xmlns:rdf="http://www.w3.org/1999/02/22-rdf-syntax-ns#"
   xmlns:svg="http://www.w3.org/2000/svg"
   xmlns="http://www.w3.org/2000/svg"
   xmlns:sodipodi="http://sodipodi.sourceforge.net/DTD/sodipodi-0.dtd"
   xmlns:inkscape="http://www.inkscape.org/namespaces/inkscape"
   width="404.02399"
   height="293.97601"
   viewBox="0 0 404.02399 293.97601"
   version="1.1"
   id="svg5206"
   sodipodi:docname="dea-logo-secret-inkscape.svg"
   inkscape:version="0.92.4 (5da689c313, 2019-01-14)">
  <metadata
     id="metadata5210">
    <rdf:RDF>
      <cc:Work
         rdf:about="">
        <dc:format>image/svg+xml</dc:format>
        <dc:type
           rdf:resource="http://purl.org/dc/dcmitype/StillImage" />
        <dc:title>DEA Internal Docs</dc:title>
      </cc:Work>
    </rdf:RDF>
  </metadata>
  <sodipodi:namedview
     pagecolor="#ffffff"
     bordercolor="#666666"
     borderopacity="1"
     objecttolerance="10"
     gridtolerance="10"
     guidetolerance="10"
     inkscape:pageopacity="0"
     inkscape:pageshadow="2"
     inkscape:window-width="1920"
     inkscape:window-height="1137"
     id="namedview5208"
     showgrid="false"
     inkscape:zoom="0.81883109"
     inkscape:cx="413.01704"
     inkscape:cy="58.85401"
     inkscape:window-x="-8"
     inkscape:window-y="0"
     inkscape:window-maximized="1"
     inkscape:current-layer="svg5206"
     fit-margin-top="0"
     fit-margin-left="0"
     fit-margin-right="0"
     fit-margin-bottom="0" />
  <title
     id="title5159">DEA Internal Docs</title>
  <defs
     id="defs5165" />
  <g
     style="fill:none;fill-rule:evenodd;stroke:none;stroke-width:1"
     id="DEALogo"
     transform="translate(0,-0.024)">
    <polyline
       transform="translate(0,75)"
       id="Fill-23"
       points="92.134 185.243 0 93.109 92.134 0.975 184.268 93.11 92.134 185.243"
       style="fill:#00a0d3" />
    <polyline
       style="fill:#7dbc49"
       points="292.139 251.648 180.255 139.762 292.139 27.881 404.024 139.766 292.139 251.648"
       id="Fill-25" />
    <polyline
       transform="translate(104)"
       id="Fill-26"
       points="64.085 127.592 0.304 63.812 64.085 0.024 127.867 63.804 64.085 127.592"
       style="fill:#83cce6" />
    <polyline
       transform="translate(104)"
       id="Fill-28"
       points="230.492 294 200.345 263.853 230.492 233.707 260.638 263.854 230.492 294"
       style="fill:#f2af46" />
  </g>
  <path
     d="m 209,47.976 c -33.13709,0 -60,26.7286 -60,59.7 v 29.85 h -10 v 109.45 h 140 v -109.45 h -10 v -29.85 c 0,-32.9714 -26.86292,-59.7 -60,-59.7 z m 0,19.9 c 22.09139,0 40,17.819059 40,39.8 v 29.85 h -80 v -29.85 c 0,-21.980941 17.90861,-39.8 40,-39.8 z"
     id="Padlock"
     inkscape:connector-curvature="0"
     style="fill:#000000;fill-rule:nonzero;stroke:none;stroke-width:1" />
</svg>
